<svg viewBox="0 0 800 800" xmlns="http://www.w3.org/2000/svg"><g fill="none" fill-rule="evenodd"><g transform="translate(237.000000, 279.000000)"><path d="M326 427.28v35.382c0 1.954-1.697 3.538-3.79 3.538H3.79c-2.093 0-3.79-1.584-3.79-3.538v-35.383c0-1.954 1.697-3.538 3.79-3.538h318.42c2.093 0 3.79 1.584 3.79 3.538z" fill="#7C7C7C"></path><g transform="translate(9.855814, 433.383006)"><path fill="#D8D8D8" d="M36.391 0h215.311v5.038H36.391z"></path><path fill="#D7D7D7" d="M9.072 0h5.04v5.04h-5.04zM0 0h5.04v5.04H0z"></path><path fill="#00CD00" d="M290.304 0h5.04v5.04h-5.04z"></path><path fill="#D7D400" d="M281.232 0h5.04v5.04h-5.04z"></path><path fill="#FF3C00" d="M272.16 0h5.04v5.04h-5.04z"></path><path fill="#00CD00" d="M299.376 0h5.04v5.04h-5.04z"></path></g><g transform="translate(9.855814, 442.199222)"><path fill="#D8D8D8" d="M36.391 0h215.311v5.038H36.391z"></path><path fill="#D7D7D7" d="M9.072 0h5.04v5.04h-5.04zM0 0h5.04v5.04H0z"></path><path fill="#00CD00" d="M290.304 0h5.04v5.04h-5.04z"></path><path fill="#D7D400" d="M281.232 0h5.04v5.04h-5.04z"></path><path fill="#FF3C00" d="M272.16 0h5.04v5.04h-5.04z"></path><path fill="#00CD00" d="M299.376 0h5.04v5.04h-5.04z"></path></g><g transform="translate(9.855814, 451.015439)"><path fill="#D8D8D8" d="M36.391 0h215.311v5.038H36.391z"></path><path fill="#D7D7D7" d="M9.072 0h5.04v5.04h-5.04zM0 0h5.04v5.04H0z"></path><path fill="#00CD00" d="M290.304 0h5.04v5.04h-5.04z"></path><path fill="#D7D400" d="M281.232 0h5.04v5.04h-5.04z"></path><path fill="#FF3C00" d="M272.16 0h5.04v5.04h-5.04z"></path><path fill="#00CD00" d="M299.376 0h5.04v5.04h-5.04z"></path></g><path d="M326 3.78v411.264a3.785 3.785 0 01-3.79 3.78H3.79a3.785 3.785 0 01-3.79-3.78V3.78A3.785 3.785 0 013.79 0h318.42A3.785 3.785 0 01326 3.78z" fill="#7C7C7C"></path><path fill="#D7D7D7" d="M11.088 403.704h303.66v5.04H11.088zM9.828 27.216h304.92v5.04H9.828zm0-9.072h304.92v5.04H9.828zm0-9.072h304.92v5.04H9.828z"></path><path d="M11.372 42.318h303.256c.837 0 1.516.676 1.516 1.511V391.44c0 .835-.679 1.511-1.516 1.511H11.372a1.514 1.514 0 01-1.516-1.511V43.83c0-.836.679-1.512 1.516-1.512z" fill="#FFF"></path></g><path fill="#D8D8D8" d="M509 554h39v39h-39zM385 441h39v39h-39zm-134-38h39v39h-39z"></path><path fill="#FA2A00" d="M251 517h150v151H251z"></path><path fill="#F5A623" d="M401 480h58v188h-58zM371 53h58v188h-58z"></path><path fill="#86B8B1" d="M459 593h76v76h-76zM251 441h76v76h-76z"></path><path fill="#3D1C00" d="M459 429h50v164h-50z"></path></g></svg>